M48
; DRILL file {KiCad (6.0.5)} date Thu Sep 22 22:10:44 2022
; FORMAT={2:4/ absolute / inch / suppress leading zeros}
; #@! TF.CreationDate,2022-09-22T22:10:44-04:00
; #@! TF.GenerationSoftware,Kicad,Pcbnew,(6.0.5)
; #@! TF.FileFunction,MixedPlating,1,2
FMAT,2
INCH,TZ
; #@! TA.AperFunction,Plated,PTH,ViaDrill
T1C0.0157
; #@! TA.AperFunction,Plated,PTH,ComponentDrill
T2C0.0276
; #@! TA.AperFunction,Plated,PTH,ComponentDrill
T3C0.0394
; #@! TA.AperFunction,Plated,PTH,ComponentDrill
T4C0.0402
; #@! TA.AperFunction,Plated,PTH,ComponentDrill
T5C0.0433
; #@! TA.AperFunction,Plated,PTH,ComponentDrill
T6C0.1260
; #@! TA.AperFunction,NonPlated,NPTH,ComponentDrill
T7C0.0591
; #@! TA.AperFunction,NonPlated,NPTH,ComponentDrill
T8C0.0709
%
G90
G05
T1
X23976Y-34291
X23976Y-35315
X24055Y-34803
X24173Y-36220
X24213Y-35709
X24370Y-32953
X24370Y-33425
X24370Y-33898
X24449Y-32441
X24567Y-42402
X24606Y-31969
X24685Y-36575
X24764Y-37559
X24764Y-38071
X24882Y-37008
X25039Y-31693
X25118Y-40787
X25551Y-33346
X25551Y-33898
X25591Y-31811
X25748Y-35591
X25787Y-34803
X25866Y-33031
X25866Y-34291
X25866Y-35197
X25984Y-32165
X26024Y-36260
X26220Y-35827
X26255Y-40822
X26378Y-33031
X26417Y-31693
X26417Y-36614
X26772Y-41378
X26929Y-32953
X27047Y-31693
X27283Y-32126
X27283Y-32598
X27835Y-35236
X28386Y-33819
X32520Y-39252
X32520Y-39764
X34843Y-30827
X37441Y-30787
X40591Y-34370
X41024Y-32953
X41024Y-34606
X41417Y-33346
X41457Y-33819
X41496Y-34724
X41969Y-33858
X42047Y-34724
X42480Y-33937
T2
X25156Y-32318
X26656Y-32318
X42650Y-32018
X44150Y-32018
T3
X29998Y-31300
X30998Y-31300
X33260Y-33504
X34260Y-33504
X35260Y-33504
X36260Y-33504
X39699Y-33661
X40699Y-33661
T4
X29516Y-36106
X29516Y-43106
X29606Y-38606
X29606Y-39606
X29606Y-40606
X30516Y-36106
X30516Y-43106
X31516Y-36106
X31516Y-43106
X32516Y-36106
X32516Y-43106
X33516Y-36106
X33516Y-43106
X34516Y-36106
X34516Y-43106
X35516Y-36106
X35516Y-43106
X36516Y-36106
X36516Y-43106
X37516Y-36106
X37516Y-43106
X38516Y-36106
X38516Y-43106
X39516Y-36106
X39516Y-43106
X40516Y-36106
X40516Y-43106
X41516Y-36106
X41516Y-43106
X42516Y-36106
X42516Y-43106
X43516Y-36106
X43516Y-43106
X44516Y-36106
X44516Y-43106
X45516Y-36106
X45516Y-43106
X46516Y-36106
X46516Y-43106
X47516Y-36106
X47516Y-43106
X48516Y-36106
X48516Y-43106
T5
X21122Y-42874
X21122Y-45433
X22894Y-42874
X22894Y-45433
X27776Y-45945
X27776Y-47717
X30335Y-45945
X30335Y-47717
X33681Y-45945
X33681Y-47717
X36240Y-45945
X36240Y-47717
X39587Y-45945
X39587Y-47717
X42146Y-45945
X42146Y-47717
T6
X21969Y-31969
X21969Y-47717
X47559Y-31969
X47559Y-47717
T7
X47272Y-38652
X47272Y-40561
T8
X48465Y-38533
X48465Y-40679
T0
M30
