%TF.GenerationSoftware,KiCad,Pcbnew,(6.0.5)*%
%TF.CreationDate,2022-09-22T22:10:40-04:00*%
%TF.ProjectId,HotplateController,486f7470-6c61-4746-9543-6f6e74726f6c,rev?*%
%TF.SameCoordinates,Original*%
%TF.FileFunction,Paste,Bot*%
%TF.FilePolarity,Positive*%
%FSLAX46Y46*%
G04 Gerber Fmt 4.6, Leading zero omitted, Abs format (unit mm)*
G04 Created by KiCad (PCBNEW (6.0.5)) date 2022-09-22 22:10:40*
%MOMM*%
%LPD*%
G01*
G04 APERTURE LIST*
G04 Aperture macros list*
%AMRoundRect*
0 Rectangle with rounded corners*
0 $1 Rounding radius*
0 $2 $3 $4 $5 $6 $7 $8 $9 X,Y pos of 4 corners*
0 Add a 4 corners polygon primitive as box body*
4,1,4,$2,$3,$4,$5,$6,$7,$8,$9,$2,$3,0*
0 Add four circle primitives for the rounded corners*
1,1,$1+$1,$2,$3*
1,1,$1+$1,$4,$5*
1,1,$1+$1,$6,$7*
1,1,$1+$1,$8,$9*
0 Add four rect primitives between the rounded corners*
20,1,$1+$1,$2,$3,$4,$5,0*
20,1,$1+$1,$4,$5,$6,$7,0*
20,1,$1+$1,$6,$7,$8,$9,0*
20,1,$1+$1,$8,$9,$2,$3,0*%
G04 Aperture macros list end*
%ADD10RoundRect,0.225000X-0.250000X0.225000X-0.250000X-0.225000X0.250000X-0.225000X0.250000X0.225000X0*%
%ADD11RoundRect,0.250000X0.337500X0.475000X-0.337500X0.475000X-0.337500X-0.475000X0.337500X-0.475000X0*%
%ADD12RoundRect,0.237500X0.237500X-0.250000X0.237500X0.250000X-0.237500X0.250000X-0.237500X-0.250000X0*%
%ADD13RoundRect,0.237500X-0.237500X0.250000X-0.237500X-0.250000X0.237500X-0.250000X0.237500X0.250000X0*%
%ADD14RoundRect,0.237500X-0.250000X-0.237500X0.250000X-0.237500X0.250000X0.237500X-0.250000X0.237500X0*%
%ADD15RoundRect,0.225000X0.225000X0.250000X-0.225000X0.250000X-0.225000X-0.250000X0.225000X-0.250000X0*%
%ADD16RoundRect,0.237500X0.250000X0.237500X-0.250000X0.237500X-0.250000X-0.237500X0.250000X-0.237500X0*%
%ADD17RoundRect,0.225000X-0.225000X-0.250000X0.225000X-0.250000X0.225000X0.250000X-0.225000X0.250000X0*%
%ADD18RoundRect,0.150000X-0.150000X0.825000X-0.150000X-0.825000X0.150000X-0.825000X0.150000X0.825000X0*%
%ADD19RoundRect,0.237500X0.287500X0.237500X-0.287500X0.237500X-0.287500X-0.237500X0.287500X-0.237500X0*%
%ADD20RoundRect,0.250000X-0.337500X-0.475000X0.337500X-0.475000X0.337500X0.475000X-0.337500X0.475000X0*%
G04 APERTURE END LIST*
D10*
%TO.C,C9*%
X67800000Y-120425000D03*
X67800000Y-121975000D03*
%TD*%
D11*
%TO.C,C3*%
X70800000Y-91700000D03*
X68725000Y-91700000D03*
%TD*%
D12*
%TO.C,R8*%
X66800000Y-111112500D03*
X66800000Y-109287500D03*
%TD*%
D13*
%TO.C,R2*%
X62300000Y-87500000D03*
X62300000Y-89325000D03*
%TD*%
D12*
%TO.C,R6*%
X69800000Y-111112500D03*
X69800000Y-109287500D03*
%TD*%
D14*
%TO.C,R14*%
X78544072Y-85852000D03*
X80369072Y-85852000D03*
%TD*%
D10*
%TO.C,C7*%
X109800000Y-120425000D03*
X109800000Y-121975000D03*
%TD*%
D15*
%TO.C,C10*%
X56575000Y-106200000D03*
X55025000Y-106200000D03*
%TD*%
D14*
%TO.C,R9*%
X86717500Y-80160500D03*
X88542500Y-80160500D03*
%TD*%
D11*
%TO.C,C4*%
X86889500Y-82296000D03*
X84814500Y-82296000D03*
%TD*%
%TO.C,C5*%
X111700000Y-87300000D03*
X109625000Y-87300000D03*
%TD*%
D12*
%TO.C,R11*%
X90170000Y-80057000D03*
X90170000Y-78232000D03*
%TD*%
D14*
%TO.C,R12*%
X76552500Y-83058000D03*
X78377500Y-83058000D03*
%TD*%
%TO.C,R4*%
X60555500Y-103378000D03*
X62380500Y-103378000D03*
%TD*%
D16*
%TO.C,R5*%
X96162500Y-80160500D03*
X94337500Y-80160500D03*
%TD*%
D17*
%TO.C,C2*%
X68525000Y-93600000D03*
X70075000Y-93600000D03*
%TD*%
D10*
%TO.C,C8*%
X94800000Y-121425000D03*
X94800000Y-122975000D03*
%TD*%
D12*
%TO.C,R7*%
X63800000Y-111112500D03*
X63800000Y-109287500D03*
%TD*%
D16*
%TO.C,R13*%
X105012500Y-82600000D03*
X103187500Y-82600000D03*
%TD*%
D12*
%TO.C,R10*%
X92710000Y-80057000D03*
X92710000Y-78232000D03*
%TD*%
D18*
%TO.C,U1*%
X64148000Y-95569000D03*
X65418000Y-95569000D03*
X66688000Y-95569000D03*
X67958000Y-95569000D03*
X67958000Y-100519000D03*
X66688000Y-100519000D03*
X65418000Y-100519000D03*
X64148000Y-100519000D03*
%TD*%
D15*
%TO.C,C1*%
X64328000Y-91460500D03*
X62778000Y-91460500D03*
%TD*%
D19*
%TO.C,D1*%
X76816000Y-85852000D03*
X75066000Y-85852000D03*
%TD*%
D20*
%TO.C,C6*%
X113662500Y-87300000D03*
X115737500Y-87300000D03*
%TD*%
D14*
%TO.C,R3*%
X60555500Y-106172000D03*
X62380500Y-106172000D03*
%TD*%
D13*
%TO.C,R1*%
X64300000Y-87500000D03*
X64300000Y-89325000D03*
%TD*%
M02*
