%TF.GenerationSoftware,KiCad,Pcbnew,(6.0.5)*%
%TF.CreationDate,2022-09-22T22:10:40-04:00*%
%TF.ProjectId,HotplateController,486f7470-6c61-4746-9543-6f6e74726f6c,rev?*%
%TF.SameCoordinates,Original*%
%TF.FileFunction,Soldermask,Bot*%
%TF.FilePolarity,Negative*%
%FSLAX46Y46*%
G04 Gerber Fmt 4.6, Leading zero omitted, Abs format (unit mm)*
G04 Created by KiCad (PCBNEW (6.0.5)) date 2022-09-22 22:10:40*
%MOMM*%
%LPD*%
G01*
G04 APERTURE LIST*
G04 Aperture macros list*
%AMRoundRect*
0 Rectangle with rounded corners*
0 $1 Rounding radius*
0 $2 $3 $4 $5 $6 $7 $8 $9 X,Y pos of 4 corners*
0 Add a 4 corners polygon primitive as box body*
4,1,4,$2,$3,$4,$5,$6,$7,$8,$9,$2,$3,0*
0 Add four circle primitives for the rounded corners*
1,1,$1+$1,$2,$3*
1,1,$1+$1,$4,$5*
1,1,$1+$1,$6,$7*
1,1,$1+$1,$8,$9*
0 Add four rect primitives between the rounded corners*
20,1,$1+$1,$2,$3,$4,$5,0*
20,1,$1+$1,$4,$5,$6,$7,0*
20,1,$1+$1,$6,$7,$8,$9,0*
20,1,$1+$1,$8,$9,$2,$3,0*%
G04 Aperture macros list end*
%ADD10C,5.700000*%
%ADD11C,2.000000*%
%ADD12RoundRect,0.225000X-0.250000X0.225000X-0.250000X-0.225000X0.250000X-0.225000X0.250000X0.225000X0*%
%ADD13R,1.400000X1.400000*%
%ADD14C,1.400000*%
%ADD15RoundRect,0.250000X0.337500X0.475000X-0.337500X0.475000X-0.337500X-0.475000X0.337500X-0.475000X0*%
%ADD16RoundRect,0.237500X0.237500X-0.250000X0.237500X0.250000X-0.237500X0.250000X-0.237500X-0.250000X0*%
%ADD17O,1.500000X1.500000*%
%ADD18O,1.800000X1.800000*%
%ADD19R,1.700000X3.500000*%
%ADD20O,1.700000X1.700000*%
%ADD21R,1.700000X1.700000*%
%ADD22R,3.500000X1.700000*%
%ADD23RoundRect,0.237500X-0.237500X0.250000X-0.237500X-0.250000X0.237500X-0.250000X0.237500X0.250000X0*%
%ADD24RoundRect,0.237500X-0.250000X-0.237500X0.250000X-0.237500X0.250000X0.237500X-0.250000X0.237500X0*%
%ADD25RoundRect,0.225000X0.225000X0.250000X-0.225000X0.250000X-0.225000X-0.250000X0.225000X-0.250000X0*%
%ADD26RoundRect,0.237500X0.250000X0.237500X-0.250000X0.237500X-0.250000X-0.237500X0.250000X-0.237500X0*%
%ADD27RoundRect,0.225000X-0.225000X-0.250000X0.225000X-0.250000X0.225000X0.250000X-0.225000X0.250000X0*%
%ADD28RoundRect,0.150000X-0.150000X0.825000X-0.150000X-0.825000X0.150000X-0.825000X0.150000X0.825000X0*%
%ADD29RoundRect,0.237500X0.287500X0.237500X-0.287500X0.237500X-0.287500X-0.237500X0.287500X-0.237500X0*%
%ADD30RoundRect,0.250000X-0.337500X-0.475000X0.337500X-0.475000X0.337500X0.475000X-0.337500X0.475000X0*%
G04 APERTURE END LIST*
D10*
%TO.C,H2*%
X55800000Y-121200000D03*
%TD*%
%TO.C,H3*%
X120800000Y-81200000D03*
%TD*%
%TO.C,H1*%
X55800000Y-81200000D03*
%TD*%
D11*
%TO.C,SW1*%
X100550000Y-121200000D03*
X107050000Y-121200000D03*
X107050000Y-116700000D03*
X100550000Y-116700000D03*
%TD*%
D10*
%TO.C,H4*%
X120800000Y-121200000D03*
%TD*%
D11*
%TO.C,SW2*%
X85550000Y-121200000D03*
X92050000Y-121200000D03*
X92050000Y-116700000D03*
X85550000Y-116700000D03*
%TD*%
%TO.C,SW3*%
X70550000Y-121200000D03*
X77050000Y-121200000D03*
X70550000Y-116700000D03*
X77050000Y-116700000D03*
%TD*%
D12*
%TO.C,C9*%
X67800000Y-120425000D03*
X67800000Y-121975000D03*
%TD*%
D13*
%TO.C,J5*%
X112141000Y-81325000D03*
D14*
X108331000Y-81325000D03*
%TD*%
D15*
%TO.C,C3*%
X70800000Y-91700000D03*
X68725000Y-91700000D03*
%TD*%
D16*
%TO.C,R8*%
X66800000Y-111112500D03*
X66800000Y-109287500D03*
%TD*%
D17*
%TO.C,U2*%
X120070000Y-103025000D03*
X120070000Y-98175000D03*
D18*
X123100000Y-103325000D03*
X123100000Y-97875000D03*
D19*
X123230000Y-110390000D03*
D20*
X123230000Y-109490000D03*
D19*
X120690000Y-110390000D03*
D20*
X120690000Y-109490000D03*
D21*
X118150000Y-109490000D03*
D19*
X118150000Y-110390000D03*
D20*
X115610000Y-109490000D03*
D19*
X115610000Y-110390000D03*
X113070000Y-110390000D03*
D20*
X113070000Y-109490000D03*
D19*
X110530000Y-110390000D03*
D20*
X110530000Y-109490000D03*
D19*
X107990000Y-110390000D03*
D20*
X107990000Y-109490000D03*
D21*
X105450000Y-109490000D03*
D19*
X105450000Y-110390000D03*
D20*
X102910000Y-109490000D03*
D19*
X102910000Y-110390000D03*
X100370000Y-110390000D03*
D20*
X100370000Y-109490000D03*
X97830000Y-109490000D03*
D19*
X97830000Y-110390000D03*
X95290000Y-110390000D03*
D20*
X95290000Y-109490000D03*
D21*
X92750000Y-109490000D03*
D19*
X92750000Y-110390000D03*
X90210000Y-110390000D03*
D20*
X90210000Y-109490000D03*
D19*
X87670000Y-110390000D03*
D20*
X87670000Y-109490000D03*
D19*
X85130000Y-110390000D03*
D20*
X85130000Y-109490000D03*
D19*
X82590000Y-110390000D03*
D20*
X82590000Y-109490000D03*
D21*
X80050000Y-109490000D03*
D19*
X80050000Y-110390000D03*
D20*
X77510000Y-109490000D03*
D19*
X77510000Y-110390000D03*
D20*
X74970000Y-109490000D03*
D19*
X74970000Y-110390000D03*
X74970000Y-90810000D03*
D20*
X74970000Y-91710000D03*
X77510000Y-91710000D03*
D19*
X77510000Y-90810000D03*
X80050000Y-90810000D03*
D21*
X80050000Y-91710000D03*
D19*
X82590000Y-90810000D03*
D20*
X82590000Y-91710000D03*
D19*
X85130000Y-90810000D03*
D20*
X85130000Y-91710000D03*
D19*
X87670000Y-90810000D03*
D20*
X87670000Y-91710000D03*
D19*
X90210000Y-90810000D03*
D20*
X90210000Y-91710000D03*
D21*
X92750000Y-91710000D03*
D19*
X92750000Y-90810000D03*
D20*
X95290000Y-91710000D03*
D19*
X95290000Y-90810000D03*
D20*
X97830000Y-91710000D03*
D19*
X97830000Y-90810000D03*
D20*
X100370000Y-91710000D03*
D19*
X100370000Y-90810000D03*
D20*
X102910000Y-91710000D03*
D19*
X102910000Y-90810000D03*
X105450000Y-90810000D03*
D21*
X105450000Y-91710000D03*
D19*
X107990000Y-90810000D03*
D20*
X107990000Y-91710000D03*
D19*
X110530000Y-90810000D03*
D20*
X110530000Y-91710000D03*
D19*
X113070000Y-90810000D03*
D20*
X113070000Y-91710000D03*
X115610000Y-91710000D03*
D19*
X115610000Y-90810000D03*
D21*
X118150000Y-91710000D03*
D19*
X118150000Y-90810000D03*
X120690000Y-90810000D03*
D20*
X120690000Y-91710000D03*
X123230000Y-91710000D03*
D19*
X123230000Y-90810000D03*
D22*
X74300000Y-103140000D03*
D20*
X75200000Y-103140000D03*
D21*
X75200000Y-100600000D03*
D22*
X74300000Y-100600000D03*
D20*
X75200000Y-98060000D03*
D22*
X74300000Y-98060000D03*
%TD*%
D21*
%TO.C,J3*%
X103375000Y-85500000D03*
D20*
X100835000Y-85500000D03*
%TD*%
D23*
%TO.C,R2*%
X62300000Y-87500000D03*
X62300000Y-89325000D03*
%TD*%
D16*
%TO.C,R6*%
X69800000Y-111112500D03*
X69800000Y-109287500D03*
%TD*%
D24*
%TO.C,R14*%
X78544072Y-85852000D03*
X80369072Y-85852000D03*
%TD*%
D12*
%TO.C,C7*%
X109800000Y-120425000D03*
X109800000Y-121975000D03*
%TD*%
D25*
%TO.C,C10*%
X56575000Y-106200000D03*
X55025000Y-106200000D03*
%TD*%
D21*
%TO.C,J4*%
X76195000Y-79502000D03*
D20*
X78735000Y-79502000D03*
%TD*%
D24*
%TO.C,R9*%
X86717500Y-80160500D03*
X88542500Y-80160500D03*
%TD*%
D15*
%TO.C,C4*%
X86889500Y-82296000D03*
X84814500Y-82296000D03*
%TD*%
%TO.C,C5*%
X111700000Y-87300000D03*
X109625000Y-87300000D03*
%TD*%
D16*
%TO.C,R11*%
X90170000Y-80057000D03*
X90170000Y-78232000D03*
%TD*%
D24*
%TO.C,R12*%
X76552500Y-83058000D03*
X78377500Y-83058000D03*
%TD*%
%TO.C,R4*%
X60555500Y-103378000D03*
X62380500Y-103378000D03*
%TD*%
D26*
%TO.C,R5*%
X96162500Y-80160500D03*
X94337500Y-80160500D03*
%TD*%
D21*
%TO.C,J2*%
X92100000Y-85100000D03*
D20*
X89560000Y-85100000D03*
X87020000Y-85100000D03*
X84480000Y-85100000D03*
%TD*%
D27*
%TO.C,C2*%
X68525000Y-93600000D03*
X70075000Y-93600000D03*
%TD*%
D12*
%TO.C,C8*%
X94800000Y-121425000D03*
X94800000Y-122975000D03*
%TD*%
D13*
%TO.C,J1*%
X67705000Y-82087000D03*
D14*
X63895000Y-82087000D03*
%TD*%
D16*
%TO.C,R7*%
X63800000Y-111112500D03*
X63800000Y-109287500D03*
%TD*%
D26*
%TO.C,R13*%
X105012500Y-82600000D03*
X103187500Y-82600000D03*
%TD*%
D16*
%TO.C,R10*%
X92710000Y-80057000D03*
X92710000Y-78232000D03*
%TD*%
D28*
%TO.C,U1*%
X64148000Y-95569000D03*
X65418000Y-95569000D03*
X66688000Y-95569000D03*
X67958000Y-95569000D03*
X67958000Y-100519000D03*
X66688000Y-100519000D03*
X65418000Y-100519000D03*
X64148000Y-100519000D03*
%TD*%
D25*
%TO.C,C1*%
X64328000Y-91460500D03*
X62778000Y-91460500D03*
%TD*%
D29*
%TO.C,D1*%
X76816000Y-85852000D03*
X75066000Y-85852000D03*
%TD*%
D11*
%TO.C,SW4*%
X53650000Y-108900000D03*
X53650000Y-115400000D03*
X58150000Y-115400000D03*
X58150000Y-108900000D03*
%TD*%
D30*
%TO.C,C6*%
X113662500Y-87300000D03*
X115737500Y-87300000D03*
%TD*%
D24*
%TO.C,R3*%
X60555500Y-106172000D03*
X62380500Y-106172000D03*
%TD*%
D23*
%TO.C,R1*%
X64300000Y-87500000D03*
X64300000Y-89325000D03*
%TD*%
M02*
